<?xml version="1.0" encoding="utf-8"?>
<!-- Generator: Adobe Illustrator 20.0.0, SVG Export Plug-In . SVG Version: 6.00 Build 0)  -->
<svg version="1.1" id="Layer_1" xmlns="http://www.w3.org/2000/svg" xmlns:xlink="http://www.w3.org/1999/xlink" x="0px" y="0px"
	 viewBox="0 0 150 50" style="enable-background:new 0 0 150 50;" xml:space="preserve">
<style type="text/css">
	.st0{fill:none;}
	.st1{fill:none;stroke:#231F20;stroke-miterlimit:10;}
	.st2{fill:none;stroke:#231F20;stroke-linecap:round;stroke-linejoin:round;stroke-miterlimit:10;}
</style>
<g>
	<rect x="100" class="st0" width="50" height="50"/>
	<rect x="50" class="st0" width="50" height="50"/>
	<rect class="st0" width="50" height="50"/>
	<g>
		<path class="st1" d="M75,15.1c-5.5,0-9.9,4.4-9.9,9.9c0,5.5,4.4,9.9,9.9,9.9c5.5,0,9.9-4.4,9.9-9.9C84.9,19.5,80.5,15.1,75,15.1"
			/>
		<path class="st1" d="M68.9,22.5c0,0.6,0.5,3.2,3,5.7c2.5,2.5,5.1,3,5.7,3.1c1.8,0.2,3-0.8,3.5-2.4c0.1-0.4-0.1-0.9-0.5-1.1l-2-1
			c-0.3-0.2-0.8-0.1-1,0.2l-1.2,1.2c0,0-1-0.1-2.9-2c-2-2-2-2.9-2-2.9l1.2-1.2c0.3-0.3,0.3-0.7,0.2-1l-0.8-1.7
			c-0.2-0.4-0.7-0.6-1.1-0.5C69.5,19.3,68.7,20.7,68.9,22.5z"/>
	</g>
	<g>
		<path class="st2" d="M33.2,34.9H16.8c-0.9,0-1.7-0.8-1.7-1.7v-9.9c0-0.5,0.2-1,0.6-1.3l7.5-6.4c1-0.8,2.5-0.8,3.5,0l7.5,6.4
			c0.4,0.3,0.6,0.8,0.6,1.3v9.9C34.8,34.2,34.1,34.9,33.2,34.9z"/>
		<polyline class="st2" points="16.9,24.4 24.9,28.9 33,24.4 		"/>
		<polyline class="st2" points="30,25.9 30,21.3 20,21.3 20,25.9 		"/>
		<line class="st2" x1="22.2" y1="23.6" x2="27.8" y2="23.6"/>
		<line class="st2" x1="22.2" y1="25.2" x2="27.8" y2="25.2"/>
	</g>
	<g>
		<path class="st1" d="M133.7,32.3c-0.4-1.3-3.5-3-4.9-3.6c-0.1,0-0.2,0-0.3,0l-3.5,1.7l-3.1-1.7c-0.1-0.1-0.2-0.1-0.3,0
			c-1.2,0.5-4.9,2.2-5.3,3.6c-0.3,1-0.4,1.5-0.4,1.5c0,0,0,0,0,0.1c0,0.5,0.2,0.7,0.5,0.8c0.3,0.2,0.7,0.1,1.1,0.1
			c0.1,0,0.2,0,0.2,0h14.6c0.1,0,0.2,0,0.3,0c0.1,0,0.2,0,0.3,0c0.3,0,1.1,0,1.1-0.9C134,33.6,134,33.4,133.7,32.3z"/>
		<path class="st1" d="M128,29c-0.4-1-0.7-2-0.7-2.1c0.2-0.2,0.4-0.5,0.7-0.8c0.1-0.1,0.1-0.2,0.2-0.3c0.2-0.4,0.5-0.7,0.7-1.2
			c0.2-0.1,0.4-0.3,0.5-0.5c0.4-0.8,0.7-2,0.5-2.5c-0.1-0.2-0.2-0.3-0.4-0.4c0-2.3-1-4.1-2.8-4.8c-0.3-0.2-0.9-0.4-1.7-0.6
			c-0.3-0.1-0.5-0.3-0.5-0.3c0-0.1-0.1-0.2-0.2-0.2c-0.1-0.1-0.2-0.1-0.3-0.1c-0.3,0.1-0.6,0.5-0.7,0.8c0,0.1-0.1,0.2-0.1,0.3
			c-0.5,0.1-1.2,0.3-1.3,1c0,0.1,0,0.1,0,0.2c-0.6,0.7-1.2,1.9-1.2,3.7c-0.2,0.1-0.4,0.2-0.5,0.4c-0.2,0.5,0.1,1.7,0.5,2.5
			c0.1,0.2,0.3,0.4,0.5,0.5c0.2,0.5,0.4,0.8,0.7,1.2c0.1,0.1,0.1,0.2,0.2,0.3c0.2,0.4,0.5,0.7,0.7,0.9c0,0.2-0.3,1-0.6,2"/>
	</g>
</g>
</svg>
