<svg style="position: absolute; width: 0; height: 0; overflow: hidden;" version="1.1" xmlns="http://www.w3.org/2000/svg" xmlns:xlink="http://www.w3.org/1999/xlink">
<defs>
<symbol id="arrow" viewBox="0 0 32 32">
<path class="path1" d="M13.824 26.027c-0.001 0-0.001 0-0.002 0-0.589 0-1.067-0.478-1.067-1.067 0-0.295 0.12-0.562 0.313-0.755l8.209-8.205-8.209-8.205c-0.193-0.193-0.313-0.46-0.313-0.755 0-0.59 0.478-1.068 1.068-1.068 0.295 0 0.562 0.12 0.755 0.313l8.96 8.96c0.194 0.193 0.313 0.46 0.313 0.755s-0.12 0.562-0.313 0.755l-8.96 8.96c-0.192 0.192-0.458 0.311-0.752 0.311-0.001 0-0.003 0-0.004 0z"></path>
<path class="path2" d="M16 32c-8.837 0-16-7.163-16-16s7.163-16 16-16c8.837 0 16 7.163 16 16-0.010 8.833-7.167 15.99-15.999 16zM16 2.133c-7.658 0-13.867 6.208-13.867 13.867s6.208 13.867 13.867 13.867c7.658 0 13.867-6.208 13.867-13.867-0.010-7.654-6.212-13.857-13.866-13.867z"></path>
</symbol>
<symbol id="clips" viewBox="0 0 26 32">
<path class="path1" fill="#1abc9c" d="M6.477 32c1.184-0.005 2.319-0.208 3.375-0.579 3.236-1.098 5.47-3.632 5.688-6.32 0-0.064-0.096-0.128-0.096-0.192v-12.461c1.074 0.536 1.998 1.176 2.819 1.928 1.757 1.758 2.551 2.769 2.845 5.707 0.006 0.102 0.009 0.221 0.009 0.342 0 1.138-0.295 2.207-0.813 3.134-0.032 0.070-0.060 0.191-0.060 0.318 0 0.463 0.375 0.838 0.838 0.838 0.229 0 0.437-0.092 0.589-0.241l0.416-0.403c1.574-1.549 3.731-3.674 3.84-6.618 0.134-3.2-2.234-5.478-4.57-7.258-0.531-0.403-1.088-0.864-1.92-1.402-2.803-1.856-7.232-4.653-7.232-7.379v-0.576c-0.060-0.448-0.419-0.796-0.867-0.838-0.016-0.001-0.031-0.001-0.046-0.001-0.448 0-0.819 0.328-0.885 0.758l-0.058 0.312s0 0.051 0 0.083c0 0.134 0 0.256 0 0.358v18.010c-0.64-0.045-0.742-0.064-1.12-0.064-1.186 0.005-2.323 0.208-3.381 0.579-1.871 0.613-3.492 1.791-4.659 3.333-0.737 0.932-1.172 2.094-1.172 3.358 0 0.56 0.085 1.099 0.244 1.607 0.751 2.215 3.196 3.667 6.217 3.667zM2.522 24.32c0.981-1.288 2.322-2.255 3.874-2.756 0.859-0.288 1.785-0.445 2.747-0.445 0.028 0 0.056 0 0.084 0 0.008-0 0.023-0 0.037-0 0.599 0 1.18 0.075 1.735 0.215 0.025 0.006 0.11 0.016 0.197 0.016 0.226 0 0.438-0.065 0.616-0.176 0.194-0.151 0.462-0.394 0.462-0.637v-15.552c1.28 2.022 4.186 3.77 6.317 5.178 0.787 0.518 1.389 0.966 1.875 1.338 2.829 2.157 3.968 3.91 3.885 5.875-0.124 1.338-0.663 2.531-1.484 3.469 0.017-0.145 0.024-0.306 0.024-0.468s-0.006-0.323-0.019-0.482c-0.312-3.269-1.227-4.657-3.275-6.712-1.25-1.107-2.671-2.066-4.208-2.824-0.211-0.106-0.329-0.14-0.454-0.14-0.147 0-0.284 0.046-0.396 0.123-0.195 0.139-0.322 0.367-0.322 0.625 0 0.027 0.001 0.054 0.004 0.081l-0 13.738s-0.077 0.051-0.083 0.077c-0.128 2.042-2.131 4.102-4.826 5.011-0.832 0.292-1.79 0.463-2.788 0.467-2.306 0-4.149-1.011-4.674-2.56-0.103-0.327-0.162-0.704-0.162-1.094 0-0.9 0.314-1.727 0.839-2.376z"></path>
</symbol>
<symbol id="logo" viewBox="0 0 34 32">
<path class="path1" d="M16.251 9.675l-1.69-1.69c-1.393-1.393-3.318-2.255-5.445-2.255-4.253 0-7.7 3.447-7.7 7.7 0 2.126 0.862 4.051 2.255 5.445l13.125 13.125 13.125-13.125c1.329-1.382 2.148-3.263 2.148-5.335 0-4.252-3.447-7.7-7.7-7.7-2.071 0-3.951 0.818-5.335 2.148l-1.474 1.474 3.233 3.192 1.46-1.46c0.572-0.572 1.363-0.926 2.236-0.926 1.747 0 3.163 1.416 3.163 3.163s-1.416 3.163-3.163 3.163c-0.873 0-1.664-0.354-2.236-0.926zM16.789 25.585l-4.944-4.953c1.060-0.409 1.965-1.005 2.716-1.756l1.482-1.482-3.233-3.192-1.466 1.464c-0.572 0.572-1.363 0.926-2.236 0.926-1.747 0-3.163-1.416-3.163-3.163s1.416-3.163 3.163-3.163c0.873 0 1.664 0.354 2.236 0.926l7.694 7.683c0.751 0.751 1.657 1.348 2.665 1.739zM0 26.955h10.37l-6.399-6.399zM33.595 26.955l-3.971-6.403-6.403 6.403zM15.599 7.297l1.198 1.198 1.437-1.437c0.583-0.583 1.246-1.086 1.972-1.489l-3.407-5.569-3.447 5.555c0.77 0.426 1.433 0.928 2.015 1.51z"></path>
</symbol>
<symbol id="movie" viewBox="0 0 26 32">
<path class="path1" fill="#1abc9c" d="M26.053 28.852v-14.081c0-0.374-0.11-0.832-0.49-0.832h-20.783l11.224-4.909c0.078-0.005 0.15-0.024 0.217-0.053l7.562-3.34c0.241-0.097 0.408-0.329 0.408-0.6 0-0.103-0.024-0.201-0.068-0.288l-1.211-2.731c-0.54-1.206-1.73-2.032-3.112-2.032-0.509 0-0.991 0.112-1.424 0.312l-16.389 7.293c-1.191 0.542-2.004 1.722-2.004 3.091 0 0.517 0.116 1.006 0.323 1.444l1.23 2.676v14.049c-0 0.009-0 0.020-0 0.031 0 1.728 1.401 3.128 3.128 3.128 0.066 0 0.131-0.002 0.196-0.006l17.981 0c0.051 0.003 0.11 0.005 0.17 0.005 1.681 0 3.045-1.363 3.045-3.045 0-0.040-0.001-0.080-0.002-0.12zM24.763 15.236v4.515h-5.87l4.393-4.515zM21.344 15.236l-4.393 4.515h-4.335l4.741-4.515zM15.332 15.236l-4.715 4.373s0 0.142 0 0.142h-4.135l4.451-4.515zM8.979 15.236l-4.451 4.515h-1.696v-4.515zM19.351 1.419c0.145-0.039 0.311-0.063 0.483-0.065 0.82 0.016 1.519 0.51 1.834 1.213l0.947 2.129-5.541 2.458zM17.577 2.154l-2.271 5.805-3.993 1.774 2.58-5.921zM12.062 4.606l-2.548 5.805c-0.001 0.014-0.002 0.029-0.002 0.045s0.001 0.032 0.002 0.047l-3.812 1.694 2.322-5.805zM2.438 13.636l-0.942-2.103c-0.111-0.244-0.175-0.53-0.175-0.83 0-0.83 0.493-1.544 1.201-1.867l3.722-1.65-2.322 5.805zM2.832 28.839v-7.805h14.139c0.071 0 0.135 0.039 0.206 0.039s0.148-0.039 0.219-0.039h7.398c0.032 0-0.032 0.039-0.032 0.039v7.779c0.001 0.023 0.002 0.050 0.002 0.077 0 0.99-0.803 1.793-1.793 1.793-0.051 0-0.101-0.002-0.15-0.006l-17.964 0c-0.043 0.003-0.092 0.005-0.142 0.005-1.035 0-1.875-0.835-1.883-1.869z"></path>
</symbol>
<symbol id="theater" viewBox="0 0 38 32">
<path class="path1" fill="#1abc9c" d="M21.235 11.027c-0.909-7.904-2.47-12.256-5.133-10.72-1.918 1.045-4.143 1.847-6.496 2.288-1.292 0.228-2.616 0.346-3.968 0.346-1.133 0-2.248-0.083-3.337-0.243-2.897-0.523-2.878 4.104-1.022 11.842s9.107 10.816 12.102 10.291 8.768-5.901 7.853-13.805zM5.478 9.472c1.651-0.954 3.283-0.301 3.674 0.64 0.082 0.168 0.129 0.365 0.129 0.574 0 0.46-0.232 0.866-0.586 1.106-0.888 0.368-2.936-0.003-3.537-0.272s-1.082-1.242 0.32-2.048zM12.486 20.429c-3.2 0.512-4.877-1.357-5.376-2.56-0.006-0.016-0.010-0.035-0.010-0.055 0-0.047 0.021-0.089 0.055-0.118 0.026-0.019 0.058-0.030 0.093-0.030s0.067 0.011 0.093 0.030c0.601 0.358 2.009 0.768 4.729 0.288s3.84-1.338 4.307-1.882c0.028-0.043 0.075-0.071 0.129-0.071 0.085 0 0.154 0.069 0.154 0.154 0 0.007-0 0.014-0.001 0.020-0.058 1.286-1.011 3.634-4.173 4.223zM16.602 9.408c-0.499 0.448-2.266 1.51-3.2 1.459-0.586-0.154-1.011-0.678-1.011-1.302 0-0.044 0.002-0.088 0.006-0.131 0.044-1.025 1.35-2.196 3.2-1.863 1.587 0.282 1.498 1.389 1.005 1.837z"></path>
<path class="path2" fill="#1abc9c" d="M35.757 10.726c-0.466 0.038-1.008 0.059-1.555 0.059-1.883 0-3.706-0.255-5.436-0.733-2.264-0.511-4.39-1.406-6.304-2.608 0.226 0.901 0.354 1.829 0.476 2.821 1.555 0.781 3.364 1.441 5.257 1.886 1.997 0.541 4.094 0.832 6.26 0.832 0.465 0 0.927-0.013 1.385-0.040 0.058 0.79 0.052 3.043-1.74 8.886-2.035 6.63-8.32 8.32-9.965 7.91-1.19-0.294-4.064-2.726-5.056-6.669-0.532 0.589-1.099 1.124-1.706 1.61 1.341 4.041 4.324 6.716 6.244 7.184 2.893 0.71 10.195-1.875 12.506-9.402s2.624-12.077-0.365-11.738z"></path>
<path class="path3" fill="#1abc9c" d="M32 18.163c-1.043-1.536-2.483-1.619-3.2-0.922-0.289 0.251-0.471 0.62-0.471 1.031 0 0.247 0.066 0.478 0.18 0.678 0.637 0.697 2.294 1.056 2.934 1.088s1.408-0.582 0.557-1.875z"></path>
<path class="path4" fill="#1abc9c" d="M21.075 25.062c-0.015 0.023-0.024 0.052-0.024 0.083s0.009 0.060 0.025 0.084c0.021 0.015 0.047 0.025 0.076 0.025s0.056-0.010 0.077-0.026c0.524-0.301 1.734-0.729 3.961-0.179s3.104 1.478 3.43 1.997c0.022 0.035 0.060 0.057 0.103 0.057 0.013 0 0.026-0.002 0.039-0.006 0.054-0.022 0.092-0.073 0.095-0.134 0.006-0.080 0.009-0.173 0.009-0.267 0-1.848-1.289-3.396-3.017-3.793-0.337-0.088-0.693-0.136-1.061-0.136-1.616 0-3.017 0.923-3.703 2.271z"></path>
<path class="path5" fill="#1abc9c" d="M25.99 16.435c-0.307-0.89-1.651-1.542-3.142-0.934-0.167 0.866-0.377 1.615-0.641 2.338 0.731 0.164 2.453 0.535 3.233 0.241 0.388-0.243 0.642-0.669 0.642-1.154 0-0.177-0.034-0.346-0.095-0.5z"></path>
</symbol>
<symbol id="tv" viewBox="0 0 30 32">
<path class="path1" fill="#1abc9c" d="M26.005 32h-21.763c-1.779-0.001-3.221-1.443-3.224-3.222v-15.422c0.001-1.78 1.444-3.223 3.224-3.224h21.754c0.001 0 0.003 0 0.004 0 1.781 0 3.225 1.443 3.226 3.224v15.421c-0.002 1.778-1.443 3.219-3.222 3.222zM4.242 11.438c-1.058 0.001-1.916 0.858-1.919 1.916v15.422c0.001 1.059 0.86 1.917 1.919 1.919h21.754c1.059-0.001 1.917-0.86 1.919-1.919v-15.419c-0.002-1.058-0.86-1.915-1.919-1.917z"></path>
<path class="path2" fill="#1abc9c" d="M22.115 29.348h-13.983c-1.682 0-3.046-1.364-3.046-3.046v-10.479c0-1.682 1.364-3.046 3.046-3.046h13.983c1.682 0 3.046 1.364 3.046 3.046v10.488c-0.005 1.678-1.367 3.037-3.046 3.037 0 0 0 0 0 0zM8.132 14.092c-0.961 0-1.74 0.779-1.74 1.74v10.488c0 0.961 0.779 1.74 1.74 1.74h13.983c0.961 0 1.74-0.779 1.74-1.74v-10.496c0-0.961-0.779-1.74-1.74-1.74z"></path>
<path class="path3" fill="#1abc9c" d="M19.024 11.127c-0.36 0-0.653-0.292-0.653-0.653 0-1.794-1.455-3.249-3.249-3.249s-3.249 1.455-3.249 3.249c0 0.36-0.292 0.653-0.653 0.653s-0.653-0.292-0.653-0.653c0-2.515 2.039-4.554 4.554-4.554s4.554 2.039 4.554 4.554c0 0.36-0.292 0.653-0.653 0.653z"></path>
<path class="path4" fill="#1abc9c" d="M11.852 8.099c-0 0-0 0-0.001 0-0.124 0-0.241-0.035-0.34-0.095l-11.198-6.792c-0.189-0.117-0.314-0.323-0.314-0.558 0-0.361 0.292-0.653 0.653-0.653 0.125 0 0.243 0.035 0.342 0.097l11.187 6.79c0.191 0.116 0.316 0.323 0.316 0.559 0 0.36-0.292 0.653-0.653 0.653-0.001 0-0.002 0-0.003 0z"></path>
<path class="path5" fill="#1abc9c" d="M18.273 8.099c-0.001 0-0.002 0-0.003 0-0.36 0-0.653-0.292-0.653-0.653 0-0.236 0.125-0.443 0.313-0.557l11.206-6.793c0.094-0.056 0.207-0.089 0.329-0.089 0.36 0 0.653 0.292 0.653 0.653 0 0.231-0.12 0.435-0.302 0.55l-11.202 6.793c-0.097 0.060-0.214 0.096-0.34 0.096-0 0-0.001 0-0.001 0z"></path>
</symbol>
</defs>
</svg>
