<svg xmlns="http://www.w3.org/2000/svg" xmlns:xlink="http://www.w3.org/1999/xlink" viewBox="0 0 143.78 60"><defs><style>.cls-1{fill:url(#linear-gradient);}.cls-2{fill:#fff;}</style><linearGradient id="linear-gradient" x1="100.93" x2="100.93" y2="60" gradientUnits="userSpaceOnUse"><stop offset="0" stop-color="#e33129"/><stop offset="1" stop-color="#be2428"/></linearGradient></defs><title>Asset 7</title><g id="Layer_2" data-name="Layer 2"><g id="Graphics"><path id="lozenge" class="cls-1" d="M142.93,12.94s-.84-5.88-3.41-8.47c-3.26-3.4-6.91-3.41-8.59-3.61C118.94,0,101,0,101,0h0s-18,0-30,.86c-1.68.2-5.33.22-8.59,3.61-2.57,2.59-3.41,8.47-3.41,8.47a128.44,128.44,0,0,0-.86,13.81v6.47A128.43,128.43,0,0,0,58.94,47s.84,5.88,3.41,8.47c3.26,3.4,7.54,3.29,9.45,3.65,6.86.66,29.14.86,29.14.86s18,0,30-.89c1.67-.2,5.33-.22,8.59-3.61,2.57-2.59,3.41-8.47,3.41-8.47a128.59,128.59,0,0,0,.86-13.81V26.75A128.6,128.6,0,0,0,142.93,12.94Z"/><path id="u" class="cls-2" d="M53.66,48.56H48.21V45.4C46.14,47.77,44.39,49,42.48,49a3.43,3.43,0,0,1-3.42-2.22,11.54,11.54,0,0,1-.61-4.22v-23h5.45V43.1c.13.81.47,1.1,1.16,1.1,1,0,2-.91,3.14-2.53V19.57h5.45Z"/><path id="o" class="cls-2" d="M34.44,29c0-3.1-.62-5.42-1.72-6.89a7.23,7.23,0,0,0-6-2.79,6.87,6.87,0,0,0-6,2.79c-1.12,1.46-1.72,3.82-1.72,6.91V39.37c0,3.08.53,5.21,1.65,6.66a7.6,7.6,0,0,0,6.1,3,7.68,7.68,0,0,0,6.14-3c1.1-1.45,1.61-3.58,1.61-6.66ZM29,39.95c.29,2.87-.6,4.29-2.3,4.29s-2.58-1.42-2.3-4.29V28.47c-.29-2.87.6-4.21,2.3-4.21s2.59,1.35,2.3,4.21Z"/><path id="y" class="cls-2" d="M12.91,32.77V48.56H7.17V32.77S1.23,13.42,0,9.81H6l4,15.12,4-15.12h6Z"/><path id="e" class="cls-2" d="M136.61,35.07V29.2c0-3.06-.6-5.31-1.69-6.76a7.27,7.27,0,0,0-6.13-3,7.44,7.44,0,0,0-6.22,3c-1.1,1.45-1.75,3.82-1.75,6.88v10A10.61,10.61,0,0,0,122.63,46a7.44,7.44,0,0,0,6.29,2.94,7.19,7.19,0,0,0,6.28-3.11,7.4,7.4,0,0,0,1.22-3.11,32.66,32.66,0,0,0,.18-3.38v-.81h-5.45c0,2.08,0,3.32,0,3.61a2.23,2.23,0,0,1-2.32,2.08c-1.78,0-2.54-1.33-2.52-4V35.07Zm-10.34-7.47c0-2.68.74-3.41,2.47-3.41s2.41.8,2.41,3.45v3.13h-4.88Z"/><path id="b" class="cls-2" d="M112.53,19.4c-1.91,0-3.81,1.18-5.49,3.24V10.1h-5.17V48.56H107V45.67c1.74,2.15,3.63,3.26,5.48,3.26a4.26,4.26,0,0,0,4.27-3.24,22.07,22.07,0,0,0,.57-5.74V28.47a20.13,20.13,0,0,0-.7-5.73C116,20.59,114.59,19.4,112.53,19.4Zm-.6,20.84c0,2.87-.68,4-2.17,4A4,4,0,0,1,107,42.89V25.49a4,4,0,0,1,2.7-1.31c1.5,0,2.17.84,2.17,3.71Z"/><path id="u-2" data-name="u" class="cls-2" d="M97.57,48.56H92.12V45.4C90.05,47.77,88.3,49,86.39,49A3.43,3.43,0,0,1,83,46.75a11.54,11.54,0,0,1-.61-4.22V19.86h5.45V43.1c.13.81.47,1.1,1.16,1.1,1,0,2-.91,3.14-2.53V19.86h5.45Z"/><polygon id="T" class="cls-2" points="76.91 48.55 71.17 48.55 71.17 15.55 65.14 15.55 65.14 10.11 83.22 10.1 83.22 15.55 76.91 15.55 76.91 48.55"/></g></g></svg>